<svg width="40" height="46" viewBox="0 0 40 46" fill="none" xmlns="http://www.w3.org/2000/svg">
<path d="M20.0001 0.766724C20.0001 0.766724 14.4417 6.90006 1.66675 6.90006V21.5281C1.66675 29.1717 5.27508 36.5394 11.8001 41.2621C14.1167 42.9334 16.8417 44.3747 20.0001 45.2334C23.1584 44.3671 25.8834 42.9334 28.2001 41.2621C34.7251 36.5394 38.3334 29.1717 38.3334 21.5281V6.90006C25.5584 6.90006 20.0001 0.766724 20.0001 0.766724Z" stroke="#434057" stroke-width="1.5" stroke-miterlimit="10" stroke-linejoin="round"/>
<path d="M20.0001 40.3727C18.2334 39.7363 16.5167 38.824 14.8917 37.6433C9.74175 33.925 6.66675 27.899 6.66675 21.528V11.2163C12.8251 10.4957 17.2001 8.52532 20.0001 6.76965C22.8001 8.51765 27.1751 10.488 33.3334 11.2163V21.5357C33.3334 27.899 30.2584 33.925 25.1084 37.651C23.4834 38.824 21.7667 39.7363 20.0001 40.3727Z" stroke="#434057" stroke-width="1.5" stroke-miterlimit="10" stroke-linejoin="round"/>
<path d="M30.0001 16.8667L18.3334 29.1334L11.6667 23" stroke="#434057" stroke-width="1.5" stroke-miterlimit="10" stroke-linecap="round" stroke-linejoin="round"/>
</svg>
