<svg width="23" height="23" viewBox="0 0 23 23" fill="none" xmlns="http://www.w3.org/2000/svg">
<g clip-path="url(#clip0_100_951)">
<path fill-rule="evenodd" clip-rule="evenodd" d="M16.3073 0.173218H6.69165C4.94926 0.173218 3.27824 0.865378 2.04619 2.09743C0.814135 3.32949 0.121973 5.00051 0.121973 6.7429V16.3585C0.121973 18.1009 0.814135 19.7719 2.04619 21.004C3.27824 22.236 4.94926 22.9282 6.69165 22.9282H16.3073C18.0497 22.9282 19.7207 22.236 20.9527 21.004C22.1848 19.7719 22.877 18.1009 22.877 16.3585V6.7429C22.877 5.00051 22.1848 3.32949 20.9527 2.09743C19.7207 0.865378 18.0497 0.173218 16.3073 0.173218V0.173218ZM16.5462 2.26357C16.5462 2.26357 13.9083 2.14412 11.2506 2.14412C8.87756 2.14412 6.45275 2.26357 6.45275 2.26357C5.90374 2.26357 5.36009 2.37171 4.85287 2.58181C4.34564 2.79191 3.88477 3.09986 3.49655 3.48807C3.10834 3.87628 2.80039 4.33716 2.59029 4.84439C2.38019 5.35161 2.27205 5.89526 2.27205 6.44428C2.27205 6.44428 2.1526 9.15009 2.1526 11.7597C2.1526 14.1905 2.27205 16.5377 2.27205 16.5377C2.27205 17.0867 2.38019 17.6304 2.59029 18.1376C2.80039 18.6448 3.10834 19.1057 3.49655 19.4939C3.88477 19.8821 4.34564 20.1901 4.85287 20.4002C5.36009 20.6103 5.90374 20.7184 6.45275 20.7184C6.45275 20.7184 8.89058 20.8378 11.37 20.8378C13.9358 20.8378 16.5462 20.7184 16.5462 20.7184C17.655 20.7184 18.7183 20.2779 19.5024 19.4939C20.2864 18.7099 20.7269 17.6465 20.7269 16.5377C20.7269 16.5377 20.7866 14.1905 20.7866 11.7597C20.7866 9.15009 20.7269 6.44428 20.7269 6.44428C20.7269 5.33548 20.2864 4.2721 19.5024 3.48807C18.7183 2.70404 17.655 2.26357 16.5462 2.26357ZM5.43744 4.0553C5.16576 4.0553 4.90017 4.13586 4.67428 4.2868C4.44838 4.43774 4.27231 4.65228 4.16834 4.90328C4.06437 5.15429 4.03717 5.43048 4.09017 5.69695C4.14318 5.96341 4.27401 6.20818 4.46612 6.40029C4.65823 6.5924 4.90299 6.72322 5.16945 6.77623C5.43592 6.82923 5.71211 6.80203 5.96312 6.69806C6.21412 6.59409 6.42866 6.41802 6.5796 6.19213C6.73054 5.96623 6.8111 5.70065 6.8111 5.42896C6.8111 5.06464 6.66638 4.71525 6.40877 4.45764C6.15115 4.20003 5.80176 4.0553 5.43744 4.0553ZM11.4995 5.66786C10.3359 5.66786 9.19856 6.01288 8.23113 6.6593C7.2637 7.30571 6.50968 8.22449 6.06442 9.29944C5.61916 10.3744 5.50266 11.5572 5.72965 12.6984C5.95664 13.8396 6.51693 14.8878 7.33966 15.7105C8.16239 16.5332 9.21062 17.0935 10.3518 17.3205C11.4929 17.5475 12.6758 17.431 13.7507 16.9858C14.8257 16.5405 15.7445 15.7865 16.3909 14.819C17.0373 13.8516 17.3823 12.7142 17.3823 11.5507C17.3823 9.99048 16.7625 8.49415 15.6593 7.39091C14.556 6.28766 13.0597 5.66786 11.4995 5.66786ZM11.4995 7.69849C10.7494 7.69849 10.0161 7.92091 9.39246 8.33764C8.76879 8.75436 8.2827 9.34667 7.99565 10.0397C7.70861 10.7326 7.6335 11.4952 7.77984 12.2309C7.92617 12.9665 8.28737 13.6423 8.81776 14.1727C9.34815 14.7031 10.0239 15.0643 10.7596 15.2106C11.4953 15.3569 12.2578 15.2818 12.9508 14.9948C13.6438 14.7077 14.2361 14.2217 14.6528 13.598C15.0695 12.9743 15.292 12.2411 15.292 11.491C15.292 10.4852 14.8924 9.52051 14.1812 8.80928C13.4699 8.09805 12.5053 7.69849 11.4995 7.69849Z" fill="#434057"/>
</g>
<defs>
<clipPath id="clip0_100_951">
<rect width="22.755" height="22.755" fill="white" transform="matrix(-1 0 0 1 22.877 0.173218)"/>
</clipPath>
</defs>
</svg>
