<svg width="50" height="46" viewBox="0 0 50 46" fill="none" xmlns="http://www.w3.org/2000/svg">
<g clip-path="url(#clip0_625_302)">
<path d="M40 0.766724H10V14.5667H40V0.766724Z" stroke="#434057" stroke-width="1.3" stroke-miterlimit="10" stroke-linecap="round"/>
<path d="M37.5 3.06665H12.5V12.2667H37.5V3.06665Z" stroke="#434057" stroke-width="1.3" stroke-miterlimit="10" stroke-linecap="round"/>
<path d="M43.3333 40.6333H6.66667C4.375 40.6333 2.5 38.9083 2.5 36.8C2.5 34.6917 4.375 32.9667 6.66667 32.9667H43.3333C45.625 32.9667 47.5 34.6917 47.5 36.8C47.5 38.9083 45.625 40.6333 43.3333 40.6333Z" stroke="#434057" stroke-width="1.3" stroke-miterlimit="10"/>
<path d="M6.66659 32.9667H8.09992C8.24159 32.6064 8.33325 32.223 8.33325 31.8167C8.33325 29.9077 6.65825 28.3667 4.58325 28.3667C2.50825 28.3667 0.833252 29.9077 0.833252 31.8167C0.833252 33.212 1.74159 34.4157 3.04159 34.9524C3.74992 33.7794 5.10825 32.9667 6.66659 32.9667Z" stroke="#434057" stroke-width="1.3" stroke-miterlimit="10"/>
<path d="M43.3334 32.9667H41.9001C41.7584 32.6064 41.6667 32.223 41.6667 31.8167C41.6667 29.9077 43.3417 28.3667 45.4167 28.3667C47.4918 28.3667 49.1668 29.9077 49.1668 31.8167C49.1668 33.212 48.2584 34.4157 46.9584 34.9524C46.2501 33.7794 44.8917 32.9667 43.3334 32.9667Z" stroke="#434057" stroke-width="1.3" stroke-miterlimit="10"/>
<path d="M43.3334 28.9493V25.8443C43.3334 22.1566 40.0834 19.1666 36.0751 19.1666H13.9251C9.91675 19.1666 6.66675 22.1566 6.66675 25.8443V28.9493C7.67508 29.5703 8.33341 30.6206 8.33341 31.8166C8.33341 32.223 8.24175 32.6063 8.10008 32.9666H41.8917C41.7584 32.6063 41.6667 32.223 41.6667 31.8166C41.6667 30.6206 42.3251 29.5703 43.3334 28.9493Z" stroke="#434057" stroke-width="1.3" stroke-miterlimit="10"/>
<path d="M10.8333 40.6333H7.5V42.9333H10.8333V40.6333Z" stroke="#434057" stroke-width="1.3" stroke-miterlimit="10" stroke-linecap="round"/>
<path d="M9.16675 42.9333V45.2333" stroke="#434057" stroke-width="1.3" stroke-miterlimit="10" stroke-linecap="round"/>
<path d="M8.33325 45.2333H9.99992" stroke="#434057" stroke-width="1.3" stroke-miterlimit="10" stroke-linecap="round"/>
<path d="M42.5001 40.6333H39.1667V42.9333H42.5001V40.6333Z" stroke="#434057" stroke-width="1.3" stroke-miterlimit="10" stroke-linecap="round"/>
<path d="M40.8333 42.9333V45.2333" stroke="#434057" stroke-width="1.3" stroke-miterlimit="10" stroke-linecap="round"/>
<path d="M40 45.2333H41.6667" stroke="#434057" stroke-width="1.3" stroke-miterlimit="10" stroke-linecap="round"/>
<path d="M15 26.0667L16.6667 24.5333" stroke="#434057" stroke-width="1.3" stroke-miterlimit="10" stroke-linecap="round"/>
<path d="M15 26.0667L16.6667 27.6" stroke="#434057" stroke-width="1.3" stroke-miterlimit="10" stroke-linecap="round"/>
<path d="M13.3334 26.0667L11.6667 27.6" stroke="#434057" stroke-width="1.3" stroke-miterlimit="10" stroke-linecap="round"/>
<path d="M13.3334 26.0667L11.6667 24.5333" stroke="#434057" stroke-width="1.3" stroke-miterlimit="10" stroke-linecap="round"/>
<path d="M25.8333 27.6L27.4999 26.0667" stroke="#434057" stroke-width="1.3" stroke-miterlimit="10" stroke-linecap="round"/>
<path d="M25.8333 27.6L27.4999 29.1333" stroke="#434057" stroke-width="1.3" stroke-miterlimit="10" stroke-linecap="round"/>
<path d="M24.1667 27.6L22.5 29.1333" stroke="#434057" stroke-width="1.3" stroke-miterlimit="10" stroke-linecap="round"/>
<path d="M24.1667 27.6L22.5 26.0667" stroke="#434057" stroke-width="1.3" stroke-miterlimit="10" stroke-linecap="round"/>
<path d="M36.6667 26.0667L38.3334 24.5333" stroke="#434057" stroke-width="1.3" stroke-miterlimit="10" stroke-linecap="round"/>
<path d="M36.6667 26.0667L38.3334 27.6" stroke="#434057" stroke-width="1.3" stroke-miterlimit="10" stroke-linecap="round"/>
<path d="M34.9999 26.0667L33.3333 27.6" stroke="#434057" stroke-width="1.3" stroke-miterlimit="10" stroke-linecap="round"/>
<path d="M34.9999 26.0667L33.3333 24.5333" stroke="#434057" stroke-width="1.3" stroke-miterlimit="10" stroke-linecap="round"/>
<path d="M15 9.20002L17.5 6.90002" stroke="#434057" stroke-width="1.3" stroke-miterlimit="10" stroke-linecap="round"/>
<path d="M17.5 6.90002L20 9.20002" stroke="#434057" stroke-width="1.3" stroke-miterlimit="10" stroke-linecap="round"/>
<path d="M20 9.20002L22.5 6.90002" stroke="#434057" stroke-width="1.3" stroke-miterlimit="10" stroke-linecap="round"/>
<path d="M22.5 6.90002L25 9.20002" stroke="#434057" stroke-width="1.3" stroke-miterlimit="10" stroke-linecap="round"/>
<path d="M25 9.20002L27.5 6.90002" stroke="#434057" stroke-width="1.3" stroke-miterlimit="10" stroke-linecap="round"/>
<path d="M27.5 6.90002L30 9.20002" stroke="#434057" stroke-width="1.3" stroke-miterlimit="10" stroke-linecap="round"/>
<path d="M30 9.20002L32.5 6.90002" stroke="#434057" stroke-width="1.3" stroke-miterlimit="10" stroke-linecap="round"/>
<path d="M32.5 6.90002L35 9.20002" stroke="#434057" stroke-width="1.3" stroke-miterlimit="10" stroke-linecap="round"/>
</g>
<defs>
<clipPath id="clip0_625_302">
<rect width="50" height="46" fill="white"/>
</clipPath>
</defs>
</svg>
