<svg width="24" height="20" viewBox="0 0 24 20" fill="none" xmlns="http://www.w3.org/2000/svg">
<path d="M0.543915 9.69135C2.9002 8.39348 5.53045 7.3102 7.98802 6.22142C12.216 4.43808 16.4608 2.68564 20.7484 1.05415C21.5826 0.776173 23.0815 0.504364 23.2285 1.74058C23.148 3.49049 22.8169 5.23016 22.5898 6.96983C22.0135 10.7955 21.3473 14.6081 20.6976 18.4212C20.4738 19.6914 18.8827 20.3488 17.8647 19.536C15.418 17.8834 12.9525 16.2468 10.5371 14.5559C9.7459 13.7519 10.4796 12.5973 11.1862 12.0232C13.2014 10.0373 15.3385 8.35002 17.2483 6.26148C17.7635 5.01748 16.2413 6.06588 15.7392 6.38715C12.9805 8.28824 10.2893 10.3054 7.38068 11.9762C5.89498 12.794 4.16337 12.0951 2.67835 11.6388C1.34686 11.0875 -0.604297 10.5321 0.54378 9.69151L0.543915 9.69135Z" fill="white"/>
</svg>
