<svg width="50" height="46" viewBox="0 0 50 46" fill="none" xmlns="http://www.w3.org/2000/svg">
<g clip-path="url(#clip0_625_354)">
<path d="M34.1666 17.6333L26.3666 27.554C25.5916 28.5276 24.0583 28.6426 23.125 27.784C22.2 26.933 22.3166 25.5146 23.375 24.8016L34.1666 17.6333Z" stroke="#434057" stroke-width="1.5" stroke-miterlimit="10" stroke-linecap="round" stroke-linejoin="round"/>
<path d="M22.5001 5.42806C23.0501 5.38972 23.6084 5.36672 24.1667 5.36672C24.7251 5.36672 25.2834 5.38972 25.8334 5.42806V3.06672H27.9167C28.6084 3.06672 29.1667 2.55306 29.1667 1.91672C29.1667 1.28039 28.6084 0.766724 27.9167 0.766724H20.4167C19.7251 0.766724 19.1667 1.28039 19.1667 1.91672C19.1667 2.55306 19.7251 3.06672 20.4167 3.06672H22.5001V5.42806Z" stroke="#434057" stroke-width="1.5" stroke-miterlimit="10" stroke-linecap="round"/>
<path d="M39.35 11.2086L42.3 8.49463" stroke="#434057" stroke-width="1.5" stroke-miterlimit="10" stroke-linecap="round"/>
<path d="M43.4777 5.24526L41.1207 7.4137L43.4777 9.58214L45.8347 7.4137L43.4777 5.24526Z" stroke="#434057" stroke-width="1.5" stroke-miterlimit="10" stroke-linecap="round"/>
<path d="M24.1666 5.3667V7.6667" stroke="#434057" stroke-width="1.5" stroke-miterlimit="10" stroke-linecap="round"/>
<path d="M24.1666 42.9333V45.2333" stroke="#434057" stroke-width="2" stroke-miterlimit="10" stroke-linecap="round"/>
<path d="M45.7 25.3H43.2" stroke="#434057" stroke-width="1.5" stroke-miterlimit="10" stroke-linecap="round"/>
<path d="M34.8667 8.03467L33.6167 10.028" stroke="#434057" stroke-width="1.5" stroke-miterlimit="10" stroke-linecap="round"/>
<path d="M42.7916 35.2667L40.6333 34.1167" stroke="#434057" stroke-width="1.5" stroke-miterlimit="10" stroke-linecap="round"/>
<path d="M33.6167 40.572L34.8667 42.5654" stroke="#434057" stroke-width="1.5" stroke-miterlimit="10" stroke-linecap="round"/>
<path d="M42.7916 15.3334L40.6333 16.4834" stroke="#434057" stroke-width="1.5" stroke-miterlimit="10" stroke-linecap="round"/>
<path d="M19.1667 44.7197C20.7334 45.0494 22.3584 45.2334 24.0334 45.2334C36.0001 45.2334 45.7001 36.3094 45.7001 25.3C45.7001 14.2907 36.0001 5.3667 24.0334 5.3667C22.3584 5.3667 20.7334 5.5507 19.1667 5.88037" stroke="#434057" stroke-width="1.5" stroke-miterlimit="10" stroke-linecap="round" stroke-linejoin="round"/>
<path d="M12.5 11.5H16.6667" stroke="#434057" stroke-width="1.5" stroke-miterlimit="10" stroke-linecap="round" stroke-linejoin="round"/>
<path d="M8.33325 16.8667H16.6666" stroke="#434057" stroke-width="1.5" stroke-miterlimit="10" stroke-linecap="round" stroke-linejoin="round"/>
<path d="M4.16675 22.2333H16.6667" stroke="#434057" stroke-width="1.5" stroke-miterlimit="10" stroke-linecap="round" stroke-linejoin="round"/>
<path d="M0.833252 27.6H16.6666" stroke="#434057" stroke-width="1.5" stroke-miterlimit="10" stroke-linecap="round" stroke-linejoin="round"/>
<path d="M5.83325 32.9667H16.6666" stroke="#434057" stroke-width="1.5" stroke-miterlimit="10" stroke-linecap="round" stroke-linejoin="round"/>
<path d="M10.8333 38.3334H16.6666" stroke="#434057" stroke-width="1.5" stroke-miterlimit="10" stroke-linecap="round" stroke-linejoin="round"/>
</g>
<defs>
<clipPath id="clip0_625_354">
<rect width="50" height="46" fill="white"/>
</clipPath>
</defs>
</svg>
