<svg width="26" height="27" viewBox="0 0 26 27" fill="none" xmlns="http://www.w3.org/2000/svg">
<path fill-rule="evenodd" clip-rule="evenodd" d="M13.054 26.5452H13.0487C10.8975 26.5445 8.78372 26.0047 6.90634 24.9807L0.0925293 26.7681L1.91602 20.1076C0.791201 18.1583 0.199329 15.9471 0.200293 13.6817C0.203113 6.59485 5.96917 0.829102 13.0539 0.829102C16.4923 0.830586 19.7195 2.16916 22.1463 4.59873C24.573 7.02818 25.9087 10.2575 25.9074 13.6919C25.9045 20.7772 20.1408 26.5423 13.054 26.5452ZM7.22192 22.6541L7.61203 22.8856C9.25229 23.859 11.1325 24.374 13.0495 24.3748H13.0539C18.9422 24.3748 23.7347 19.5822 23.737 13.6915C23.7381 10.8368 22.628 8.15277 20.6109 6.1334C18.5939 4.11403 15.9116 3.0014 13.0581 3.00041C7.16523 3.00041 2.37268 7.79252 2.37034 13.6828C2.36951 15.7015 2.93433 17.6674 4.00374 19.3683L4.25775 19.7725L3.17851 23.7148L7.22192 22.6541ZM19.0896 16.4592C19.3136 16.5675 19.4649 16.6406 19.5295 16.7484C19.6097 16.8823 19.6097 17.5253 19.3422 18.2756C19.0745 19.0258 17.7915 19.7105 17.1744 19.8027C16.6211 19.8854 15.9209 19.9199 15.1515 19.6754C14.685 19.5274 14.0869 19.3298 13.3206 18.9989C10.3098 17.6988 8.27506 14.7807 7.8905 14.2291C7.86356 14.1905 7.84472 14.1635 7.8342 14.1494L7.83161 14.146C7.66164 13.9192 6.52281 12.3997 6.52281 10.8271C6.52281 9.34775 7.2495 8.57234 7.58399 8.21541C7.60691 8.19096 7.62799 8.16847 7.64686 8.14785C7.94124 7.82632 8.2892 7.74594 8.50329 7.74594C8.71737 7.74594 8.93172 7.74791 9.11884 7.75731C9.14193 7.75847 9.16594 7.75833 9.19077 7.75819C9.37793 7.75709 9.61126 7.75572 9.84144 8.30862C9.92999 8.5214 10.0596 8.83684 10.1962 9.16953C10.4726 9.84235 10.7779 10.5857 10.8316 10.6933C10.912 10.8541 10.9655 11.0415 10.8584 11.256C10.8423 11.2881 10.8275 11.3185 10.8133 11.3475C10.7329 11.5116 10.6737 11.6324 10.5373 11.7917C10.4836 11.8544 10.4281 11.9219 10.3727 11.9895C10.2622 12.124 10.1517 12.2586 10.0555 12.3544C9.89473 12.5146 9.72736 12.6883 9.9147 13.0098C10.102 13.3314 10.7466 14.383 11.7014 15.2347C12.7277 16.1501 13.6197 16.537 14.0718 16.7332C14.1601 16.7715 14.2316 16.8025 14.2841 16.8287C14.6052 16.9896 14.7925 16.9627 14.9799 16.7484C15.1672 16.534 15.7827 15.8105 15.9968 15.4891C16.2109 15.1677 16.4251 15.2212 16.7194 15.3283C17.0138 15.4356 18.5928 16.2125 18.914 16.3732C18.9767 16.4046 19.0353 16.4329 19.0896 16.4592Z" fill="white"/>
</svg>
